<?xml version="1.0" standalone="no"?>
<!DOCTYPE svg PUBLIC "-//W3C//DTD SVG 20010904//EN"
 "http://www.w3.org/TR/2001/REC-SVG-20010904/DTD/svg10.dtd">
<svg version="1.0" xmlns="http://www.w3.org/2000/svg"
 width="300.000000pt" height="170.000000pt" viewBox="0 0 300.000000 170.000000"
 preserveAspectRatio="xMidYMid meet">
<metadata>
Created by potrace 1.10, written by Peter Selinger 2001-2011
</metadata>
<g transform="translate(0.000000,170.000000) scale(0.050000,-0.050000)"
fill="#d1d1d1" stroke="none">
<path d="M683 3074 c-39 -47 -31 -2243 9 -2283 47 -47 4569 -48 4616 0 39 39
47 2237 9 2283 -32 39 -4602 38 -4634 0z m3251 -51 c18 15 28 17 21 6 -9 -15
50 -22 185 -22 135 0 194 7 185 22 -7 11 3 9 21 -6 29 -24 39 -24 68 0 18 15
28 17 21 6 -9 -15 50 -22 185 -22 135 0 194 7 185 22 -7 11 3 9 21 -6 29 -24
39 -24 68 0 18 15 28 17 20 5 -9 -16 31 -22 137 -20 113 2 157 -5 177 -28 36
-44 34 -2043 -3 -2055 -14 -5 -25 -21 -25 -37 0 -23 -97 -28 -605 -30 -333 -1
-632 -4 -665 -6 -33 -2 -69 1 -80 7 -39 19 -102 22 -73 4 17 -11 -15 -17 -83
-15 -61 1 -117 9 -126 17 -19 20 -53 19 -41 -1 13 -20 -419 -19 -439 1 -19 20
-53 19 -41 -1 13 -20 -419 -19 -439 1 -19 20 -53 19 -41 -1 13 -20 -419 -19
-439 1 -20 20 -53 19 -40 -1 5 -9 -20 -16 -57 -16 -37 1 -64 8 -59 15 9 15
-30 12 -62 -4 -17 -9 -940 -8 -940 1 0 1 -22 7 -50 12 -37 6 -43 3 -20 -11 23
-15 21 -19 -14 -16 -24 2 -38 12 -31 23 6 10 -1 14 -17 8 -15 -6 -37 -1 -48
12 -24 26 -28 2080 -5 2104 8 8 697 19 1530 23 833 5 1519 12 1523 17 5 4 20
-2 35 -15 20 -16 36 -15 61 6z"/>
<path d="M3570 2850 c-11 -4 -204 -22 -430 -39 -436 -34 -584 -45 -760 -61
-60 -5 -173 -14 -250 -21 -205 -16 -201 -9 -172 -383 86 -1100 76 -1024 136
-1039 65 -16 104 22 51 50 -33 18 -41 51 -51 227 -46 742 -65 922 -96 874 -13
-21 -17 -16 -18 18 0 26 9 41 20 34 12 -7 20 16 20 59 0 53 9 72 35 74 19 2
49 6 65 8 17 3 73 6 126 7 53 1 92 9 87 17 -5 9 25 12 67 8 42 -4 237 8 433
25 607 54 834 71 843 63 4 -5 9 -47 11 -95 l3 -86 -709 -3 c-659 -3 -711 -6
-735 -39 -50 -68 -27 -1116 24 -1124 31 -5 34 -2 11 13 -34 23 -46 83 -17 83
11 0 15 -13 9 -30 -17 -44 13 -37 43 10 22 36 19 43 -26 60 -52 20 -64 49 -30
70 11 7 20 0 20 -14 0 -115 138 -49 524 248 l75 57 280 -241 c154 -133 285
-250 291 -261 16 -24 84 -25 99 -1 12 20 -3 37 -111 130 -143 123 -146 125
-130 92 8 -16 1 -13 -17 9 -43 54 -41 62 43 138 l73 67 202 -160 c395 -313
384 -303 375 -382 l-8 -71 -828 -6 c-455 -3 -828 1 -828 9 0 8 -25 29 -55 46
-40 22 -45 29 -16 25 25 -3 42 9 47 32 5 22 -1 32 -12 25 -11 -7 -25 -1 -31
13 -6 15 -10 11 -11 -10 -1 -19 -11 -35 -22 -35 -26 0 -6 -93 33 -155 l28 -45
856 0 c805 0 859 2 890 37 38 41 51 1324 14 1383 -14 22 -52 28 -153 23 -114
-5 -132 -1 -121 26 6 17 5 31 -3 31 -8 0 -12 36 -7 80 11 118 -68 172 -187
130z m399 -348 c5 -9 11 -197 12 -419 2 -280 10 -399 24 -390 15 9 16 1 4 -25
-9 -21 -16 -87 -14 -148 4 -102 2 -106 -21 -55 -13 30 -132 142 -264 248 -132
107 -246 203 -252 213 -18 25 -89 7 -83 -22 3 -13 -2 -22 -10 -19 -39 12 -115
-66 -85 -87 24 -17 21 -19 -15 -12 -25 6 -50 2 -56 -8 -6 -10 -25 -18 -41 -18
-18 0 -24 10 -16 23 10 16 4 20 -20 11 -19 -8 -29 -6 -23 4 13 22 -187 202
-225 202 -15 0 -139 -81 -276 -181 -138 -100 -263 -186 -279 -192 -25 -10 -29
54 -29 442 l0 452 830 -2 c456 -1 834 -9 839 -17z"/>
<path d="M3140 2286 c-186 -70 -144 -334 53 -334 88 0 167 80 167 168 0 103
-129 201 -220 166z m49 -86 c25 0 55 -11 66 -25 21 -27 50 -126 31 -108 -6 6
-24 -2 -40 -18 -78 -78 -157 -11 -135 115 8 47 19 75 24 61 4 -14 29 -25 54
-25z"/>
<path d="M5733 2089 c6 -16 29 -39 49 -50 49 -27 48 -72 -2 -99 -22 -12 -40
-36 -40 -55 0 -24 19 -15 70 35 l70 68 -64 66 c-68 71 -102 85 -83 35z"/>
<path d="M205 1935 l-65 -67 70 -68 c80 -78 96 -60 19 21 l-52 54 54 42 c29
23 50 51 46 63 -4 12 -37 -8 -72 -45z"/>
<path d="M2708 373 c-22 -58 1 -103 52 -103 42 0 50 9 50 60 0 67 -80 100
-102 43z"/>
<path d="M2881 371 c-54 -65 35 -143 95 -83 26 25 28 41 12 67 -30 47 -76 54
-107 16z"/>
<path d="M3068 373 c-22 -58 1 -103 52 -103 42 0 50 9 50 60 0 67 -80 100
-102 43z"/>
<path d="M3248 373 c-22 -58 1 -103 52 -103 42 0 50 9 50 60 0 67 -80 100
-102 43z"/>
</g>
</svg>
