 <svg  version="1.0" xmlns="http://www.w3.org/2000/svg"  width="300.000000pt" height="166.000000pt" viewBox="0 0 300.000000 166.000000"  preserveAspectRatio="xMidYMid meet">  <g transform="translate(0.000000,166.000000) scale(0.050000,-0.050000)" fill="#d1d1d1" stroke="none"> <path d="M180 3000 c-55 -55 -64 -2537 -9 -2616 l31 -44 1296 0 c1230 0 1297 2 1329 37 56 62 50 2566 -7 2623 -39 39 -67 40 -1320 40 -1253 0 -1281 -1 -1320 -40z m360 -40 c0 -8 40 -8 90 0 49 7 94 9 100 3 6 -5 280 -10 610 -9 432 1 600 -5 600 -21 0 -13 9 -9 20 7 17 27 19 27 20 0 0 -24 4 -24 17 -4 18 27 404 38 445 13 11 -7 82 -12 158 -11 150 1 158 -5 160 -128 1 -60 3 -722 2 -760 0 -11 -1 -373 -2 -804 -3 -755 -4 -785 -41 -796 -89 -28 -142 -32 -128 -8 9 14 7 19 -6 11 -11 -7 -451 -13 -977 -14 -576 -1 -970 -9 -992 -21 -20 -11 -36 -12 -36 -3 0 8 -56 14 -125 13 -119 -3 -233 21 -210 44 6 6 -1 34 -16 63 -15 29 -23 58 -19 65 5 8 10 85 12 172 2 86 13 173 25 192 16 26 15 42 -3 60 -33 33 -33 295 1 298 20 1 20 3 0 11 -30 12 -34 107 -4 107 14 0 13 14 -2 41 -12 23 -20 70 -18 105 2 35 1 73 -1 84 -3 11 -3 27 -2 37 2 9 3 173 4 365 1 261 7 345 24 335 16 -8 16 -4 -1 14 -31 33 -33 86 -3 68 12 -7 7 15 -11 49 -29 56 -29 64 -2 74 17 7 31 21 31 31 0 11 -8 15 -17 9 -9 -6 -19 43 -21 109 -4 148 21 179 164 197 136 18 154 18 154 2z"/> <path d="M1550 2709 c-11 -4 -258 -26 -550 -49 -329 -27 -539 -51 -554 -66 -24 -24 36 -888 65 -935 6 -10 31 -19 55 -19 27 0 52 -18 64 -45 l20 -45 588 -5 c416 -4 595 1 615 17 21 18 27 117 27 478 0 505 0 507 -126 487 l-74 -12 0 78 c0 106 -47 148 -130 116z m70 -129 l0 -60 -488 0 c-426 0 -489 -4 -500 -32 -7 -17 -12 -202 -12 -410 0 -309 -5 -378 -28 -378 -18 0 -31 35 -39 105 -22 191 -59 736 -51 744 9 8 891 84 1033 88 82 3 85 1 85 -57z m200 -451 c0 -260 -5 -328 -25 -316 -14 8 -94 72 -178 141 -171 141 -190 147 -257 76 -63 -67 -79 -64 -187 31 l-92 82 -96 -65 c-52 -36 -135 -95 -183 -132 -48 -36 -94 -66 -101 -66 -7 0 -13 130 -12 290 l1 290 565 0 565 0 0 -331z m-560 -227 c83 -72 170 -148 195 -170 37 -32 50 -34 70 -14 20 20 16 32 -19 61 -25 20 -74 61 -109 90 l-63 54 48 48 48 48 190 -152 c131 -104 192 -166 196 -199 l7 -48 -573 0 -572 0 6 84 c6 86 349 374 406 341 11 -7 88 -71 170 -143z"/> <path d="M1193 2283 c-44 -49 -42 -114 7 -163 74 -74 200 -25 200 78 0 107 -136 164 -207 85z m143 -75 c8 -53 -52 -81 -90 -42 -15 15 -22 42 -14 62 19 48 96 33 104 -20z"/> <path d="M520 1220 c0 -13 152 -21 410 -23 226 -2 421 -4 433 -5 13 -1 27 9 32 23 6 19 -89 25 -433 25 -281 0 -442 -7 -442 -20z"/> <path d="M525 1035 c12 -36 698 -36 710 0 6 19 -73 25 -355 25 -282 0 -361 -6 -355 -25z"/> <path d="M525 835 c6 -19 111 -25 435 -25 324 0 429 6 435 25 6 19 -89 25 -435 25 -346 0 -441 -6 -435 -25z"/> <path d="M534 668 c-37 -38 39 -48 359 -48 271 0 348 6 342 25 -9 27 -675 48 -701 23z"/> <path d="M3040 3000 c-55 -55 -62 -1039 -9 -1116 l31 -44 1359 0 1358 0 31 47 c52 79 35 1085 -19 1125 -71 52 -2698 41 -2751 -12z m1096 -40 c91 2 158 -7 177 -22 24 -21 34 -20 48 3 10 16 19 23 19 15 0 -7 27 -5 60 4 47 13 64 10 79 -16 11 -19 20 -25 20 -14 1 31 305 35 325 5 8 -14 16 -16 16 -5 0 28 174 35 223 8 24 -13 37 -14 30 -2 -7 11 0 25 16 31 17 6 35 2 42 -8 6 -11 20 -14 30 -8 11 6 19 3 19 -7 0 -10 40 -12 90 -4 50 8 90 8 90 0 0 -7 59 -10 130 -5 156 8 260 -70 168 -126 -15 -10 -15 -20 0 -35 28 -28 29 -154 1 -154 -12 0 -7 -15 11 -33 18 -18 26 -38 16 -45 -24 -18 -20 -422 4 -422 11 0 8 -8 -7 -18 -17 -11 -20 -22 -7 -30 24 -14 7 -92 -27 -126 -18 -18 -290 -26 -1052 -33 -565 -6 -1103 -16 -1197 -23 -259 -19 -396 49 -373 185 4 25 -1 45 -11 45 -10 0 -13 19 -5 42 7 23 11 169 10 325 -2 156 -3 304 -2 329 1 59 38 128 60 115 9 -6 22 4 29 21 8 22 29 29 61 23 27 -5 57 -4 68 3 10 7 171 5 356 -4 185 -9 403 -15 483 -14z"/> <path d="M3600 2909 c-16 -4 -110 -13 -207 -20 l-177 -13 13 -173 c17 -231 29 -283 63 -283 15 0 28 -9 28 -21 0 -13 100 -18 285 -15 l285 6 0 220 c0 213 -1 220 -45 226 -29 4 -45 21 -45 45 0 38 -94 51 -200 28z m160 -49 c0 -12 -83 -19 -215 -17 -197 4 -204 5 -85 17 211 21 300 21 300 0z m-440 -210 c0 -113 -8 -190 -20 -190 -11 0 -20 25 -20 55 0 30 -6 116 -13 190 -11 117 -8 135 20 135 28 0 33 -27 33 -190z m540 -1 l0 -152 -86 71 c-81 66 -89 69 -120 38 -31 -32 -36 -31 -82 12 l-49 46 -67 -49 c-118 -88 -116 -89 -116 54 l0 131 260 0 260 0 0 -151z m-237 -119 c42 -38 88 -70 102 -69 14 0 1 21 -28 47 -96 85 -25 102 76 19 124 -102 116 -107 -173 -107 -296 0 -332 25 -185 126 99 68 116 67 208 -16z"/> <path d="M3573 2727 c-25 -26 -13 -83 21 -96 18 -7 45 0 60 15 15 15 22 42 15 60 -13 34 -70 46 -96 21z"/> <path d="M3355 2225 c58 -4 152 -4 210 0 58 4 11 8 -105 8 -115 0 -163 -4 -105 -8z"/> <path d="M3270 2140 c7 -11 79 -20 160 -20 81 0 153 9 160 20 8 13 -50 20 -160 20 -110 0 -168 -7 -160 -20z"/> <path d="M3355 2045 c58 -4 152 -4 210 0 58 4 11 8 -105 8 -115 0 -163 -4 -105 -8z"/> <path d="M3260 1960 c0 -12 66 -20 159 -20 87 0 164 9 171 20 8 13 -50 20 -159 20 -101 0 -171 -8 -171 -20z"/> <path d="M3031 1636 c-26 -38 -31 -132 -31 -626 0 -494 5 -588 31 -626 35 -49 1181 -71 1270 -23 37 19 39 48 39 649 0 601 -2 630 -39 649 -89 48 -1235 26 -1270 -23z m965 -29 c26 -16 71 -28 100 -25 103 8 214 -78 139 -109 -18 -7 -19 -15 -3 -26 33 -25 37 -342 4 -382 -19 -24 -19 -29 -1 -18 18 11 25 -4 25 -57 0 -40 -7 -68 -17 -62 -9 6 -16 -2 -16 -18 0 -16 8 -23 19 -16 12 7 16 -14 10 -51 -5 -35 -2 -63 6 -63 12 0 11 -41 -2 -80 -2 -5 -2 -48 0 -94 6 -152 -14 -166 -232 -166 -105 0 -186 -7 -180 -16 5 -9 -16 -13 -48 -8 -31 4 -87 -1 -123 -13 -62 -19 -282 -32 -427 -26 -33 2 -86 24 -117 49 l-58 46 -7 513 c-7 471 6 647 45 608 7 -6 30 1 52 16 59 42 766 40 831 -2z"/> <path d="M3530 1569 c-143 -14 -286 -26 -318 -27 l-57 -2 13 -235 c16 -266 24 -305 61 -305 15 0 32 -14 38 -30 10 -26 62 -30 348 -25 l335 5 0 270 c0 256 -2 270 -41 276 -22 3 -49 25 -60 49 -25 55 -15 54 -319 24z m275 -59 c3 -12 -91 -22 -245 -26 -327 -7 -300 15 -300 -237 0 -273 -31 -250 -50 36 l-14 213 127 12 c70 7 159 15 197 19 124 13 280 4 285 -17z m-10 -69 l125 -1 0 -170 c0 -195 3 -193 -105 -100 -91 77 -118 84 -155 40 -21 -26 -31 -25 -80 10 -71 51 -67 51 -170 -20 -115 -79 -110 -83 -110 95 l0 155 185 -4 c102 -2 241 -4 310 -5z m-234 -252 c49 -59 181 -154 195 -140 8 8 -11 35 -42 59 -47 38 -52 49 -28 69 23 19 49 7 131 -59 164 -130 152 -138 -207 -138 l-310 0 0 47 c0 84 215 218 261 162z"/> <path d="M3581 1351 c-54 -65 35 -143 95 -83 26 25 28 41 12 67 -30 47 -76 54 -107 16z"/> <path d="M3200 760 c0 -12 97 -20 250 -20 153 0 250 8 250 20 0 12 -97 20 -250 20 -153 0 -250 -8 -250 -20z"/> <path d="M3200 660 c0 -12 80 -20 200 -20 120 0 200 8 200 20 0 12 -80 20 -200 20 -120 0 -200 -8 -200 -20z"/> <path d="M3210 540 c7 -11 110 -20 240 -20 130 0 233 9 240 20 8 13 -77 20 -240 20 -163 0 -248 -7 -240 -20z"/> <path d="M3200 440 c0 -12 80 -20 200 -20 120 0 200 8 200 20 0 12 -80 20 -200 20 -120 0 -200 -8 -200 -20z"/> <path d="M4551 1649 c-41 -41 -48 -1244 -7 -1285 39 -39 1223 -34 1256 6 34 41 32 1242 -2 1283 -36 43 -1203 40 -1247 -4z m999 -39 c179 -21 187 -34 186 -342 0 -142 2 -267 4 -278 3 -11 3 -29 1 -40 -2 -11 -4 -129 -4 -263 l-1 -242 -222 -4 c-139 -2 -233 -12 -251 -27 -23 -19 -31 -18 -38 2 -7 20 -19 18 -49 -10 -48 -43 -396 -47 -496 -6 -87 36 -98 105 -104 645 l-6 474 55 56 c82 81 406 94 925 35z"/> <path d="M4990 1566 c-343 -34 -327 -23 -307 -201 8 -74 15 -183 16 -241 1 -81 9 -108 36 -118 19 -8 44 -26 55 -40 16 -21 93 -26 350 -22 l330 6 0 270 c0 260 -2 270 -42 276 -24 3 -53 28 -65 55 -12 27 -34 48 -48 46 -14 -1 -160 -15 -325 -31z m330 -56 c0 -19 -110 -26 -415 -29 l-125 -1 0 -220 c0 -121 -8 -220 -17 -220 -18 0 -54 436 -38 452 35 35 596 52 595 18z m-15 -67 l135 -3 0 -170 c0 -195 3 -193 -105 -100 -91 78 -118 84 -155 40 -22 -27 -33 -25 -89 18 l-63 48 -89 -68 c-119 -90 -119 -90 -119 79 0 187 -65 166 485 156z m-224 -254 c47 -57 181 -154 194 -141 7 8 -12 34 -43 59 -48 38 -52 48 -27 69 24 20 48 9 132 -58 164 -130 152 -138 -207 -138 l-310 0 0 49 c0 86 214 217 261 160z"/> <path d="M5101 1351 c-54 -65 35 -143 95 -83 26 25 28 41 12 67 -30 47 -76 54 -107 16z"/> <path d="M4720 760 c0 -12 97 -20 250 -20 153 0 250 8 250 20 0 12 -97 20 -250 20 -153 0 -250 -8 -250 -20z"/> <path d="M4720 660 c0 -12 80 -20 200 -20 120 0 200 8 200 20 0 12 -80 20 -200 20 -120 0 -200 -8 -200 -20z"/> <path d="M4730 540 c7 -11 110 -20 240 -20 130 0 233 9 240 20 8 13 -77 20 -240 20 -163 0 -248 -7 -240 -20z"/> <path d="M4720 440 c0 -12 80 -20 200 -20 120 0 200 8 200 20 0 12 -80 20 -200 20 -120 0 -200 -8 -200 -20z"/> </g> </svg> 