<?xml version="1.0" standalone="no"?>
<!DOCTYPE svg PUBLIC "-//W3C//DTD SVG 20010904//EN"
 "http://www.w3.org/TR/2001/REC-SVG-20010904/DTD/svg10.dtd">
<svg version="1.0" xmlns="http://www.w3.org/2000/svg"
 width="550.000000pt" height="310.000000pt" viewBox="0 0 550.000000 310.000000"
 preserveAspectRatio="xMidYMid meet">
<metadata>
Created by potrace 1.10, written by Peter Selinger 2001-2011
</metadata>
<g transform="translate(0.000000,540.000000) scale(0.050000,-0.050000)"
fill="#d1d1d1" stroke="none">
<path d="M595 10471 c-205 -73 -195 -4 -195 -1395 0 -1350 -7 -1284 145 -1376
102 -62 3248 -62 3350 0 152 92 145 25 145 1380 0 1374 8 1302 -165 1381 -110
50 -3142 60 -3280 10z m857 -59 c90 1 173 9 185 16 13 8 23 7 23 -2 0 -10 36
-14 80 -9 49 4 94 -3 114 -20 19 -15 28 -17 20 -5 -9 16 119 22 463 22 262 0
486 6 498 13 12 8 28 5 34 -6 8 -12 30 -13 62 -1 27 11 49 12 49 4 0 -9 33
-12 73 -7 55 6 69 2 57 -18 -12 -18 -8 -20 12 -7 43 27 560 28 544 0 -8 -12 1
-10 18 4 22 18 34 19 39 4 4 -12 23 -24 42 -27 19 -3 40 -11 48 -19 7 -8 29
-14 48 -14 32 0 69 -51 62 -85 -2 -8 6 -15 17 -15 11 0 20 -10 20 -21 0 -12
-9 -16 -20 -9 -11 7 -18 -9 -16 -39 3 -28 12 -51 21 -51 9 0 6 -19 -6 -42 -16
-30 -16 -39 -1 -29 12 7 22 4 22 -8 0 -11 -11 -21 -25 -21 -20 -1 -19 -4 1
-17 14 -9 23 -44 20 -78 -2 -34 -11 -58 -20 -52 -9 5 -16 -5 -16 -23 0 -18 8
-28 17 -22 9 6 16 -2 16 -18 0 -16 -9 -22 -21 -15 -12 7 -10 -3 5 -21 18 -22
20 -34 5 -34 -12 0 -22 -10 -22 -21 0 -12 11 -15 25 -6 15 8 12 -1 -5 -23 -16
-21 -20 -32 -7 -24 15 9 22 -11 21 -65 -1 -43 -9 -74 -18 -69 -9 6 -16 1 -16
-11 0 -11 8 -21 19 -21 10 0 18 -25 17 -55 0 -30 1 -64 4 -75 9 -39 0 -72 -17
-62 -20 13 -18 -68 3 -102 8 -13 4 -30 -9 -38 -16 -10 -12 -22 14 -41 35 -26
35 -27 0 -27 -31 0 -32 -4 -8 -34 22 -28 22 -31 0 -17 -22 13 -23 8 -5 -25 26
-49 29 -111 5 -96 -9 6 -16 -2 -16 -18 0 -16 7 -24 16 -18 10 6 17 -4 17 -22
0 -20 -9 -27 -25 -18 -14 8 -10 -2 7 -24 36 -41 29 -97 -9 -74 -17 10 -17 6
-2 -15 32 -45 36 -222 5 -242 -19 -12 -15 -16 13 -17 38 0 38 0 0 -31 -22 -18
-29 -27 -16 -21 23 12 52 -83 29 -97 -7 -4 -12 -58 -11 -119 0 -62 -7 -112
-17 -112 -11 0 -8 -13 6 -30 14 -16 20 -48 14 -70 -6 -23 0 -40 13 -41 13 0 9
-11 -9 -25 -17 -13 -27 -37 -22 -52 5 -16 0 -22 -13 -14 -13 8 -27 -8 -35 -38
-8 -35 -23 -49 -42 -41 -15 6 -23 2 -17 -8 6 -10 -13 -22 -44 -27 -109 -19
-192 -15 -208 10 -13 20 -16 21 -17 1 0 -32 -192 -34 -211 -3 -10 16 -20 14
-33 -5 -15 -21 -21 -21 -29 -2 -7 17 -21 19 -44 6 -19 -10 -133 -18 -255 -18
-121 0 -229 -2 -239 -4 -10 -2 -23 -2 -29 0 -41 16 -80 14 -80 -5 0 -16 -6
-16 -22 0 -13 13 -47 15 -89 6 -37 -8 -72 -10 -78 -4 -7 6 -412 11 -902 10
-800 -1 -887 2 -864 30 22 27 20 28 -20 7 -50 -27 -125 5 -125 53 0 14 -9 21
-20 14 -11 -7 -21 12 -23 44 -5 85 -19 612 -17 646 1 17 2 208 3 425 1 283 8
395 24 395 13 0 11 8 -6 19 -25 16 -25 23 0 53 18 22 20 30 4 21 -33 -20 -34
112 -2 173 22 41 21 42 -13 14 -34 -28 -35 -27 -18 10 11 22 18 58 17 80 -1
22 8 53 20 69 16 21 15 25 -4 14 -26 -16 -35 10 -11 34 19 19 22 93 4 93 -23
0 -16 126 10 159 16 20 16 25 0 15 -14 -8 -21 8 -20 47 1 32 9 59 17 59 8 0
15 16 16 35 1 50 70 127 118 130 23 2 41 10 41 18 0 8 95 14 212 14 116 0 215
3 220 8 4 5 46 3 93 -4 47 -6 158 -11 247 -9z"/>
<path d="M2016 9852 c-560 -49 -722 -69 -746 -93 -36 -36 51 -1202 93 -1253
12 -14 52 -26 89 -26 59 0 68 -7 68 -49 0 -88 35 -92 840 -91 729 2 763 3 801
41 37 37 39 70 39 638 0 688 7 661 -171 661 l-109 0 0 81 c0 123 -27 160 -116
156 -41 -1 -395 -31 -788 -65z m828 -83 c11 -96 59 -89 -629 -89 -387 0 -632
-8 -656 -21 -37 -19 -39 -47 -39 -560 l0 -539 -50 0 c-34 0 -50 11 -51 35 -1
19 -22 274 -47 565 -25 292 -40 536 -33 543 6 7 326 37 711 66 385 30 709 57
720 61 51 18 66 5 74 -61z m261 -624 c3 -245 -1 -445 -8 -445 -7 0 -116 86
-243 190 -265 218 -260 216 -364 110 -96 -98 -75 -101 -229 30 -163 139 -133
148 -546 -165 l-115 -87 0 410 0 411 750 -5 750 -4 5 -445z m-702 -346 c220
-189 286 -236 308 -219 39 33 21 59 -121 170 -151 118 -149 111 -59 179 l70
54 245 -195 c280 -224 266 -209 263 -282 l-2 -56 -754 -5 -753 -5 0 125 0 125
115 75 c63 41 174 119 245 173 164 125 118 140 443 -139z"/>
<path d="M2293 9359 c-71 -56 -74 -172 -7 -236 128 -120 333 29 251 183 -54
101 -156 122 -244 53z m156 -70 c38 -39 38 -51 5 -97 -37 -51 -122 -35 -131
24 -12 89 65 133 126 73z"/>
<path d="M4690 10478 c-207 -64 -210 -78 -210 -1010 0 -1118 -101 -1016 1012
-1024 1174 -8 1068 -110 1068 1026 0 1131 102 1030 -1030 1028 -429 -1 -807
-10 -840 -20z m309 -65 c64 -3 94 2 86 16 -8 13 -2 13 16 -1 20 -15 215 -21
606 -20 317 1 581 -5 586 -13 6 -9 18 -10 28 -4 11 6 19 2 19 -10 0 -11 10
-21 23 -21 35 0 104 -88 76 -97 -17 -6 -17 -12 2 -24 15 -9 28 -30 31 -47 2
-18 -4 -27 -14 -21 -10 6 -18 2 -18 -9 0 -11 9 -25 20 -32 11 -7 20 -30 20
-52 0 -22 -9 -35 -20 -28 -11 7 -20 -8 -20 -34 1 -36 5 -40 19 -17 12 19 17
-58 14 -210 -3 -132 -12 -251 -20 -264 -9 -14 -8 -25 1 -25 14 0 21 -769 7
-800 -2 -5 -7 -27 -11 -47 -9 -45 -30 -69 -30 -33 0 15 -16 8 -39 -19 -23 -26
-49 -39 -63 -30 -16 10 -19 7 -9 -9 10 -16 -1 -21 -37 -14 -29 5 -52 1 -52 -9
0 -11 -14 -19 -31 -19 -17 0 -27 8 -21 17 6 9 -2 16 -18 16 -16 0 -24 -7 -18
-16 12 -20 -20 -23 -39 -3 -22 21 -75 25 -62 4 6 -10 2 -18 -9 -18 -11 0 -25
9 -32 20 -7 11 -28 19 -46 19 -28 -2 -26 -5 6 -18 32 -14 27 -17 -26 -16 -43
1 -57 7 -40 18 18 12 13 16 -18 17 -24 0 -49 -9 -56 -20 -7 -11 -30 -20 -51
-20 -22 0 -39 9 -39 20 0 11 -10 20 -21 20 -12 0 -16 -9 -9 -20 7 -11 -5 -20
-27 -20 -22 0 -45 11 -51 25 -10 20 -14 20 -24 0 -6 -14 -38 -25 -71 -25 -42
0 -55 7 -45 25 11 20 8 20 -13 0 -30 -28 -107 -35 -91 -8 6 9 -2 16 -18 16
-16 0 -25 -5 -21 -12 5 -7 -10 -14 -32 -16 -32 -2 -35 3 -17 25 18 21 14 25
-19 16 -22 -6 -37 -17 -32 -24 4 -8 -20 -15 -55 -17 -53 -2 -57 0 -24 15 22 9
29 18 15 19 -14 0 -44 -10 -66 -24 -33 -21 -44 -20 -59 5 -13 20 -19 22 -20 5
0 -14 -20 -24 -45 -24 -43 2 -43 3 -5 19 38 16 38 17 -5 19 -25 0 -45 -8 -45
-19 0 -11 -16 -20 -35 -20 -30 1 -31 3 -5 20 26 17 25 19 -5 20 -19 0 -35 -11
-35 -25 -1 -17 -5 -18 -15 -3 -19 28 -85 28 -85 0 0 -11 -14 -1 -31 24 -17 24
-45 44 -61 44 -17 0 -25 8 -19 19 7 10 -4 28 -24 39 -27 16 -28 21 -5 22 23 0
24 4 5 17 -29 18 -70 143 -47 143 8 0 16 50 17 110 1 64 -6 106 -16 99 -12 -7
-12 7 -2 35 10 25 18 97 18 160 1 63 7 124 14 135 8 12 5 21 -5 21 -25 0 -15
791 11 870 11 33 30 58 42 55 13 -3 24 11 25 30 1 21 5 25 11 10 6 -14 24 -25
40 -25 16 0 24 9 17 20 -11 18 15 29 56 22 8 -1 20 11 27 28 7 20 26 27 50 19
20 -6 82 -14 136 -16z"/>
<path d="M5820 10046 c-740 -59 -989 -86 -1011 -110 -22 -21 -21 -85 3 -346
57 -642 49 -599 122 -606 48 -5 65 -17 70 -50 l6 -44 598 -5 c424 -4 605 1
625 17 37 31 40 917 3 954 -13 13 -58 24 -100 24 -73 0 -76 3 -76 66 0 80 -31
115 -99 111 -28 -2 -91 -7 -141 -11z m176 -112 l7 -53 -497 -6 -496 -5 -5
-415 c-6 -398 -7 -415 -45 -415 -25 0 -40 14 -40 35 0 19 -14 188 -30 375 -41
482 -46 445 55 459 117 17 1000 87 1025 82 11 -2 23 -28 26 -57z m199 -459 c3
-184 1 -335 -5 -335 -5 0 -92 67 -193 149 l-183 149 -75 -59 c-89 -70 -101
-72 -151 -17 -21 23 -63 60 -93 82 l-56 39 -180 -131 c-99 -73 -184 -132 -189
-132 -6 0 -10 135 -10 300 l0 301 565 -6 565 -5 5 -335z m-537 -255 c114 -98
216 -174 225 -168 36 22 12 61 -86 136 l-101 78 57 45 56 44 140 -110 c78 -61
166 -129 197 -152 40 -30 54 -56 50 -92 l-6 -51 -565 -5 -565 -5 0 96 0 95
185 134 c224 161 166 167 413 -45z"/>
<path d="M5602 9655 c-94 -49 -90 -174 8 -219 116 -53 214 102 122 194 -57 57
-64 58 -130 25z m111 -87 c16 -41 -37 -93 -79 -77 -34 13 -46 70 -21 96 25 25
88 13 100 -19z"/>
<path d="M6965 10115 c11 -32 1155 -37 1155 -5 0 13 -211 22 -582 25 -462 5
-580 0 -573 -20z"/>
<path d="M9 8780 c0 -676 3 -953 6 -615 3 338 3 892 0 1230 -3 338 -6 62 -6
-615z"/>
<path d="M6960 9870 c0 -27 59 -30 475 -25 300 3 475 12 475 25 0 13 -175 22
-475 25 -416 5 -475 2 -475 -25z"/>
<path d="M6965 9595 c14 -41 1155 -46 1155 -5 0 26 -75 30 -582 30 -456 0
-580 -5 -573 -25z"/>
<path d="M6974 9367 c-41 -40 27 -47 468 -47 376 0 480 5 473 25 -9 27 -915
48 -941 22z"/>
<path d="M6984 8916 c-13 -13 -24 -43 -24 -66 0 -88 17 -90 663 -90 587 0 617
2 636 39 22 40 9 101 -28 126 -38 26 -1220 18 -1247 -9z"/>
<path d="M4620 7835 c-140 -96 -140 -94 -140 -975 0 -882 0 -883 139 -975 l69
-46 856 5 855 6 76 75 75 76 0 858 0 858 -50 53 c-104 111 -91 110 -986 110
-826 0 -828 0 -894 -45z m551 -33 c-13 -21 119 -18 141 3 19 20 53 19 41 0 -5
-8 33 -12 84 -9 51 4 102 6 113 5 11 0 89 -3 173 -6 85 -3 160 -11 167 -18 7
-8 45 0 83 16 42 17 80 22 94 12 13 -10 72 -16 133 -13 157 6 273 -70 254
-167 -5 -25 2 -45 14 -45 12 0 9 -9 -8 -20 -20 -13 -23 -25 -9 -35 26 -19 34
-110 8 -94 -11 6 -19 -3 -19 -21 0 -18 8 -27 18 -22 9 6 17 -137 17 -323 -1
-184 1 -362 4 -395 2 -33 -2 -82 -10 -108 -9 -28 -8 -43 3 -37 14 9 21 -123 8
-165 -2 -5 -3 -66 -2 -135 0 -85 -7 -125 -24 -125 -17 -1 -16 -6 3 -18 22 -13
19 -22 -11 -44 -21 -16 -45 -46 -53 -67 -13 -34 -18 -35 -34 -10 -16 25 -18
24 -19 -4 0 -38 -132 -48 -174 -14 -16 13 -41 8 -79 -17 -54 -35 -55 -35 -41
2 11 29 9 33 -11 18 -36 -27 -195 -34 -195 -8 0 12 -10 22 -21 22 -12 0 -17
-7 -11 -17 6 -9 -2 -16 -18 -16 -16 0 -24 7 -18 16 6 10 1 17 -11 17 -11 0
-21 -9 -21 -20 0 -12 -18 -12 -51 0 -34 13 -47 13 -39 0 7 -11 -2 -20 -20 -20
-18 0 -28 8 -22 17 6 9 -2 16 -18 16 -16 0 -24 -7 -18 -16 6 -9 -4 -17 -22
-17 -20 0 -27 9 -18 25 8 14 -3 9 -25 -10 -37 -32 -42 -32 -87 -1 -34 24 -50
27 -55 10 -11 -31 -65 -31 -65 -1 0 14 -16 9 -38 -11 -36 -33 -40 -33 -61 2
-18 28 -26 30 -35 9 -9 -22 -14 -23 -27 -2 -12 19 -23 21 -42 5 -45 -37 -173
-45 -200 -13 -16 20 -30 22 -44 8 -31 -31 -84 -26 -115 11 -24 29 -27 28 -41
-5 -12 -32 -14 -31 -16 9 -1 37 -9 44 -40 34 -33 -10 -37 -4 -29 41 6 33 2 47
-11 39 -20 -12 -31 18 -21 60 6 25 6 743 1 890 -3 61 -3 119 -1 130 1 11 3
130 4 265 0 138 9 245 20 245 10 0 13 8 7 18 -6 10 12 23 39 30 28 7 50 25 50
41 0 41 46 49 255 46 101 -1 190 4 198 11 19 20 31 17 18 -4z"/>
<path d="M5958 7452 c-4 -4 -260 -28 -568 -52 -608 -49 -618 -51 -601 -158 6
-40 25 -243 43 -452 32 -387 45 -436 112 -426 23 4 46 -13 62 -44 l25 -50 575
-5 c377 -4 589 2 615 16 38 20 40 40 34 495 l-5 474 -95 6 c-93 6 -95 8 -95
72 0 73 -68 156 -102 124z m38 -137 l7 -54 -497 -6 -496 -5 -5 -405 c-6 -388
-7 -405 -45 -405 -22 0 -40 11 -40 25 0 14 -14 178 -30 365 -16 187 -29 368
-30 402 l0 62 315 26 c173 14 392 32 485 40 287 25 329 19 336 -45z m203 -445
c0 -181 -7 -330 -16 -330 -10 0 -93 63 -185 140 -194 162 -186 159 -272 77
l-65 -64 -99 84 c-55 45 -108 83 -118 83 -17 0 -272 -174 -359 -245 -20 -16
-25 43 -25 283 l0 302 569 0 569 0 1 -330z m-540 -260 c108 -93 206 -170 219
-170 49 0 16 57 -77 134 l-100 80 46 43 c61 58 49 63 263 -110 143 -115 190
-164 190 -200 l0 -47 -570 0 -570 0 1 95 1 95 184 125 c225 152 179 157 413
-45z"/>
<path d="M5573 7023 c-69 -76 -17 -203 84 -203 54 0 123 67 123 120 0 99 -142
156 -207 83z m125 -50 c31 -38 7 -93 -41 -93 -43 0 -67 44 -50 90 15 38 61 39
91 3z"/>
<path d="M6973 7547 c-40 -41 38 -47 567 -47 502 0 580 4 580 30 0 32 -1116
48 -1147 17z"/>
<path d="M7114 7304 c-112 -4 -154 -13 -149 -30 14 -40 945 -34 945 6 0 30
-349 41 -796 24z"/>
<path d="M1484 7036 c-57 -57 -5 -176 76 -176 81 0 133 119 76 176 -13 13 -47
24 -76 24 -29 0 -63 -11 -76 -24z"/>
<path d="M1742 7032 c-43 -51 -19 -139 43 -161 81 -28 152 43 124 124 -23 65
-125 88 -167 37z"/>
<path d="M2024 7036 c-31 -31 -31 -121 0 -152 55 -55 176 0 176 81 0 77 -122
125 -176 71z"/>
<path d="M2291 7029 c-39 -40 -39 -68 0 -125 58 -82 169 -46 169 56 0 95 -101
136 -169 69z"/>
<path d="M2541 7021 c-30 -56 -26 -90 16 -128 73 -66 163 -29 163 67 0 98
-135 144 -179 61z"/>
<path d="M2804 7036 c-57 -57 -5 -176 76 -176 81 0 133 119 76 176 -13 13 -47
24 -76 24 -29 0 -63 -11 -76 -24z"/>
<path d="M6969 7019 c-22 -37 -10 -38 572 -40 501 -1 570 2 575 30 8 38 -1123
48 -1147 10z"/>
<path d="M6969 6779 c-31 -51 41 -60 482 -54 392 4 459 9 459 35 0 38 -917 56
-941 19z"/>
<path d="M1284 6436 c-41 -41 -29 -132 19 -147 55 -17 1787 -18 1815 0 29 18
28 117 -2 147 -35 35 -1797 35 -1832 0z"/>
<path d="M6984 6316 c-33 -33 -30 -106 5 -135 51 -43 1234 -30 1266 13 27 36
14 106 -23 131 -40 26 -1221 18 -1248 -9z"/>
</g>
</svg>
