<?xml version="1.0" standalone="no"?>
<!DOCTYPE svg PUBLIC "-//W3C//DTD SVG 20010904//EN"
 "http://www.w3.org/TR/2001/REC-SVG-20010904/DTD/svg10.dtd">
<svg version="1.0" xmlns="http://www.w3.org/2000/svg"
 width="800.000000pt" height="800.000000pt" viewBox="0 0 800.000000 800.000000"
 preserveAspectRatio="xMidYMid meet">
<metadata>
Created by potrace 1.10, written by Peter Selinger 2001-2011
</metadata>
<g transform="translate(0.000000,800.000000) scale(0.050000,-0.050000)"
fill="#d1d1d1" stroke="none">
<path d="M1526 15640 c-1033 -11 -974 -2 -1081 -160 l-45 -66 0 -934 0 -934
45 -68 c25 -37 77 -88 114 -113 l69 -46 971 5 971 6 67 48 c141 101 142 107
143 1103 0 1288 123 1174 -1254 1159z m994 -97 c27 -36 88 -73 70 -43 -15 26
-13 26 16 3 19 -16 34 -40 34 -54 0 -14 14 -40 31 -58 18 -17 24 -31 15 -31
-9 0 -14 -160 -11 -355 2 -195 3 -553 2 -795 -1 -242 -1 -486 0 -542 1 -96
-86 -240 -152 -250 -74 -12 -325 -7 -325 6 0 10 -16 9 -35 -1 -19 -10 -95 -16
-169 -14 -94 4 -131 -1 -122 -17 6 -12 0 -11 -15 3 -34 32 -86 33 -67 2 10
-16 5 -18 -13 -6 -38 23 -341 27 -384 5 -22 -11 -35 -10 -35 3 0 11 -13 15
-28 9 -16 -6 -49 0 -73 12 -24 13 -38 15 -32 5 8 -12 -48 -19 -146 -18 -87 1
-153 10 -147 19 6 10 -8 8 -30 -4 -52 -27 -184 -29 -184 -2 0 11 -22 20 -49
20 -27 0 -54 9 -61 20 -7 12 -20 16 -28 11 -8 -5 -27 21 -42 59 -15 38 -32 65
-39 61 -6 -4 -12 149 -13 340 -1 314 2 346 31 324 28 -23 28 -21 1 13 -35 45
-44 413 -11 437 14 9 12 14 -4 15 -14 0 -25 10 -25 21 0 12 7 17 15 12 8 -5
17 17 19 50 3 41 -3 54 -20 44 -15 -9 -14 -2 3 19 18 22 20 34 5 34 -12 0 -22
10 -22 21 0 12 7 17 15 12 8 -5 17 17 19 50 3 41 -3 54 -20 44 -14 -9 -12 0 4
20 16 20 20 32 10 29 -10 -3 -18 3 -18 14 0 11 5 19 10 17 6 -2 12 23 14 55 3
33 -4 54 -13 48 -10 -6 -25 0 -33 13 -8 14 -6 18 8 10 11 -8 27 -5 34 7 7 11
3 20 -9 20 -32 0 -25 52 19 129 21 39 34 71 28 71 -26 0 52 60 85 66 21 3 53
15 73 26 41 23 1796 15 1814 -9z"/>
<path d="M4440 15640 c-1256 -14 -1127 109 -1136 -1090 -11 -1347 -124 -1230
1200 -1230 1315 1 1186 -127 1186 1170 l0 920 -45 73 c-107 171 -90 169 -1205
157z m916 -99 c15 -17 21 -20 14 -6 -7 15 0 25 19 25 17 0 31 -7 31 -16 0 -9
32 -32 71 -50 39 -19 66 -43 60 -53 -6 -10 3 -32 20 -49 24 -24 25 -32 5 -34
-21 -1 -20 -3 1 -12 23 -9 23 -14 0 -28 -21 -14 -22 -21 -2 -34 18 -12 26 -84
26 -245 2 -311 2 -303 -24 -287 -16 10 -18 5 -6 -14 38 -61 42 -218 6 -240
-13 -8 -15 -25 -6 -40 28 -45 31 -138 4 -138 -16 -1 -15 -7 5 -20 27 -17 27
-19 0 -20 -27 -1 -27 -3 0 -20 17 -11 23 -20 14 -20 -8 0 -6 -18 5 -39 17 -31
14 -43 -14 -59 -27 -16 -29 -21 -5 -22 27 -1 27 -3 0 -20 -16 -11 -21 -20 -9
-20 31 0 35 -120 4 -120 -17 -1 -16 -7 5 -20 27 -17 27 -19 0 -20 -18 0 -22
-7 -10 -15 32 -24 36 -109 7 -127 -22 -14 -21 -18 3 -18 27 -1 27 -3 0 -20
-16 -11 -21 -20 -9 -20 31 0 35 -120 4 -120 -17 -1 -16 -7 5 -20 20 -13 22
-19 5 -20 -14 0 -25 -12 -25 -27 0 -49 -90 -112 -173 -120 -45 -4 -91 -13
-104 -21 -13 -8 -23 -7 -23 2 0 9 -135 16 -300 17 -165 0 -300 -7 -300 -16 0
-9 -17 -8 -37 3 -25 14 -44 13 -60 -3 -13 -13 -23 -14 -23 -3 0 27 -685 25
-705 -2 -9 -13 -14 -13 -15 1 0 12 -54 22 -131 22 -103 1 -137 10 -161 39 -17
21 -24 25 -16 10 9 -19 6 -23 -9 -14 -13 8 -23 23 -23 34 0 11 -17 38 -39 61
-33 36 -39 72 -40 244 0 112 -1 217 -2 233 -1 17 2 48 7 70 4 22 1 65 -8 95
-11 41 -7 59 18 74 25 15 27 20 6 20 -16 1 -23 6 -17 13 7 7 5 32 -4 56 -10
25 -9 59 2 78 14 24 12 34 -7 34 -19 1 -18 6 4 20 22 14 23 19 4 20 -15 0 -22
7 -16 16 5 9 10 93 11 185 4 517 9 680 21 694 6 6 14 37 18 66 1 12 10 16 19
11 10 -6 41 10 70 37 69 64 26 61 973 62 726 1 833 -3 856 -30z"/>
<path d="M6478 15637 c-247 -51 -258 -100 -258 -1156 1 -996 2 -1002 143
-1103 l67 -48 971 -6 971 -5 69 46 c37 25 89 76 114 113 l45 68 0 928 c0 1292
125 1166 -1164 1172 -492 2 -923 -2 -958 -9z m1745 -85 c9 -12 24 -11 43 5 24
19 32 18 42 -9 7 -18 25 -27 42 -21 16 6 54 -11 85 -39 30 -28 45 -46 32 -40
-18 9 -18 0 0 -36 12 -27 28 -45 34 -41 7 4 12 -5 12 -21 0 -16 -9 -22 -21
-15 -12 7 -10 -2 5 -20 14 -18 21 -43 14 -54 -8 -12 -2 -21 13 -21 21 -1 21
-4 -1 -18 -34 -21 -34 -24 -7 -74 16 -31 16 -48 -1 -65 -17 -17 -16 -23 6 -24
21 0 20 -6 -6 -21 -21 -12 -30 -31 -21 -44 22 -35 25 -534 3 -534 -10 0 -9
-17 2 -39 27 -49 27 -135 1 -151 -12 -7 -14 -23 -5 -36 27 -43 19 -621 -10
-651 -14 -14 -20 -34 -14 -45 6 -10 2 -18 -8 -18 -11 0 -26 -18 -33 -40 -7
-22 -21 -35 -31 -29 -11 6 -19 1 -19 -11 0 -12 -9 -17 -20 -10 -11 7 -20 5
-20 -4 0 -10 -38 -15 -84 -12 -49 2 -91 -6 -100 -20 -10 -16 -15 -17 -16 -1 0
31 -864 30 -885 -1 -10 -15 -14 -14 -15 3 0 14 -18 25 -40 25 -22 0 -41 -11
-42 -25 -1 -20 -3 -20 -11 0 -6 14 -23 25 -39 25 -15 0 -28 -11 -28 -25 -1
-19 -4 -19 -16 -1 -19 29 -149 28 -169 -2 -10 -16 -14 -15 -15 2 0 31 -160 30
-160 -1 -1 -16 -5 -16 -16 1 -19 29 -149 28 -169 -2 -10 -15 -14 -14 -15 3 0
14 -18 25 -39 25 -21 0 -47 14 -57 32 -10 17 -24 31 -31 30 -7 -1 -13 3 -13 8
1 6 -14 40 -33 75 -35 68 -50 159 -23 142 9 -5 16 9 16 32 0 22 -9 41 -20 41
-11 0 -20 10 -20 21 0 12 10 15 23 7 16 -10 18 -5 6 14 -25 39 -29 80 -7 67
10 -6 18 7 18 30 0 22 -9 41 -20 41 -11 0 -20 10 -20 21 0 12 8 17 17 11 9 -6
16 2 16 18 0 16 -6 25 -13 20 -7 -5 -13 4 -13 20 0 16 7 24 16 18 10 -6 17 8
17 31 0 22 -9 41 -20 41 -11 0 -20 10 -20 21 0 12 9 16 20 9 13 -8 13 5 0 40
-13 35 -13 48 0 40 11 -7 20 6 20 29 0 22 -9 41 -20 41 -11 0 -20 10 -20 21 0
12 9 16 20 9 13 -8 13 5 0 40 -13 35 -13 48 0 40 11 -7 20 6 20 29 0 22 -9 41
-20 41 -11 0 -20 10 -20 21 0 12 9 16 20 9 13 -8 13 5 0 40 -13 35 -13 48 0
40 11 -7 20 10 20 40 0 29 -7 48 -15 43 -8 -5 -15 16 -16 47 0 32 6 53 15 47
9 -5 16 14 16 43 0 29 -7 48 -15 43 -8 -5 -15 16 -15 47 0 31 7 52 15 47 8 -5
15 14 15 43 0 29 -7 48 -15 43 -8 -5 -15 16 -15 47 0 31 7 52 15 47 8 -5 15
14 15 43 0 29 -9 47 -20 40 -11 -7 -14 1 -8 19 7 17 2 31 -11 31 -16 0 -17 11
-2 37 11 21 13 45 5 54 -8 8 -5 10 7 4 11 -7 33 16 48 51 32 73 78 114 113
100 13 -5 29 0 36 11 7 10 30 15 52 9 22 -6 40 -3 40 7 0 26 1606 25 1623 -1z"/>
<path d="M873 13003 c-43 -48 -42 -109 4 -150 54 -49 1383 -50 1432 -2 40 41
40 117 0 158 -52 51 -1389 47 -1436 -6z"/>
<path d="M3793 13004 c-42 -47 -42 -112 -2 -153 28 -27 121 -31 720 -31 l688
0 34 52 c31 47 32 58 5 105 l-30 53 -690 5 c-650 5 -693 3 -725 -31z"/>
<path d="M6715 13018 c-50 -29 -47 -150 4 -177 24 -13 282 -21 701 -21 727 0
740 2 740 110 0 47 -12 75 -39 89 -52 28 -1358 27 -1406 -1z"/>
<path d="M993 12683 c-42 -46 -42 -69 4 -110 57 -52 143 -17 143 57 0 77 -95
111 -147 53z"/>
<path d="M1211 12689 c-52 -52 -15 -149 56 -149 65 0 98 107 49 156 -33 33
-67 30 -105 -7z"/>
<path d="M1429 12679 c-66 -73 37 -176 110 -110 51 46 52 75 4 118 -47 43 -69
42 -114 -8z"/>
<path d="M1675 12698 c-47 -27 -45 -111 4 -137 50 -27 52 -27 90 10 72 73 -6
179 -94 127z"/>
<path d="M1873 12683 c-42 -46 -42 -69 4 -110 50 -45 77 -41 115 18 58 88 -48
171 -119 92z"/>
<path d="M2095 12698 c-53 -31 -45 -115 14 -141 61 -28 111 5 111 71 0 79 -56
110 -125 70z"/>
<path d="M3891 12676 c-56 -81 47 -175 117 -106 40 41 41 78 1 119 -44 43 -81
39 -118 -13z"/>
<path d="M4109 12679 c-40 -44 -28 -86 36 -127 68 -42 131 84 71 144 -35 35
-65 30 -107 -17z"/>
<path d="M4331 12676 c-56 -81 47 -175 117 -106 40 41 41 78 1 119 -44 43 -81
39 -118 -13z"/>
<path d="M4575 12698 c-87 -50 -4 -186 85 -138 52 28 52 112 1 139 -46 25 -42
25 -86 -1z"/>
<path d="M4772 12677 c-57 -82 36 -172 109 -106 47 43 49 76 8 118 -44 43 -81
39 -117 -12z"/>
<path d="M4991 12689 c-52 -53 -15 -149 57 -149 14 0 41 16 59 37 75 83 -36
191 -116 112z"/>
<path d="M6811 12689 c-40 -41 -39 -78 1 -119 70 -69 173 25 117 106 -37 52
-74 56 -118 13z"/>
<path d="M7035 12698 c-53 -31 -45 -115 14 -141 93 -43 162 94 72 142 -46 25
-42 25 -86 -1z"/>
<path d="M7251 12689 c-52 -52 -15 -149 56 -149 38 0 73 43 73 90 0 82 -72
115 -129 59z"/>
<path d="M7472 12677 c-57 -82 36 -172 109 -106 47 43 49 76 8 118 -44 43 -81
39 -117 -12z"/>
<path d="M7691 12689 c-52 -52 -15 -149 56 -149 38 0 73 43 73 90 0 82 -72
115 -129 59z"/>
<path d="M7915 12698 c-48 -27 -45 -111 5 -138 84 -45 164 68 96 136 -29 29
-54 30 -101 2z"/>
<path d="M449 12291 c-73 -73 -73 -329 0 -402 l49 -49 1086 1 c1146 0 1123 -2
1173 93 53 101 22 321 -55 380 -24 19 -296 25 -1118 25 l-1086 1 -49 -49z
m384 -44 c23 -10 29 -6 19 10 -11 18 -2 17 38 -1 42 -19 56 -18 69 2 9 15 21
18 28 7 6 -10 111 -18 234 -16 122 1 227 -5 232 -14 6 -9 21 -9 34 0 33 25
117 27 145 3 14 -11 29 -12 36 -2 15 25 128 26 143 2 8 -12 22 -13 36 -3 33
25 117 27 145 3 15 -12 29 -13 36 -1 15 24 115 24 145 0 14 -11 28 -11 35 -1
15 25 128 26 143 2 8 -12 25 -10 44 6 26 21 33 21 41 -1 7 -22 12 -22 24 -2
10 16 29 19 53 9 20 -9 48 -14 62 -12 14 2 45 -10 70 -27 24 -17 32 -31 18
-31 -14 0 -19 -10 -11 -23 21 -34 24 -157 4 -157 -10 0 -13 -9 -6 -20 7 -11
-7 -20 -30 -20 -23 0 -37 -8 -31 -18 6 -11 -243 -18 -603 -19 -382 0 -603 7
-585 18 22 14 16 18 -24 19 -30 0 -57 -9 -60 -20 -8 -22 -297 -38 -297 -17 0
8 11 18 25 24 14 5 -2 10 -35 10 -33 0 -49 -5 -35 -10 49 -20 7 -39 -66 -31
-51 6 -65 14 -46 26 18 12 8 17 -33 16 -33 -1 -48 -6 -33 -12 22 -9 22 -14 2
-27 -14 -8 -47 -7 -74 3 -27 10 -57 13 -68 6 -10 -6 -32 -1 -48 13 -18 14 -29
16 -29 3 0 -11 -20 -15 -44 -9 l-43 12 43 16 c24 8 44 21 44 28 0 8 -13 8 -29
2 -44 -17 -70 32 -62 118 9 107 8 102 36 104 14 1 48 8 75 16 28 8 82 13 120
12 55 -2 64 2 40 19 -31 23 -11 18 73 -15z"/>
<path d="M3366 12292 c-52 -45 -56 -59 -56 -202 0 -143 4 -157 56 -202 l56
-48 1078 0 1078 0 56 48 c52 45 56 59 56 202 0 143 -4 157 -56 202 l-56 48
-1078 0 -1078 0 -56 -48z m1177 -60 c59 36 1024 14 1032 -24 26 -116 23 -199
-9 -223 -19 -14 -25 -25 -15 -25 11 0 6 -9 -10 -19 -19 -12 -40 -10 -59 5 -20
16 -25 17 -16 1 8 -14 -6 -26 -36 -32 -28 -5 -50 -2 -50 7 0 9 -15 11 -33 4
-20 -8 -29 -5 -21 7 7 11 0 20 -16 20 -16 0 -24 -7 -19 -15 6 -9 -26 -15 -69
-13 -44 2 -76 9 -71 16 4 7 -5 12 -21 12 -16 0 -24 -7 -18 -16 6 -9 -13 -17
-42 -17 -36 0 -48 8 -38 25 11 20 8 20 -13 0 -30 -28 -67 -34 -51 -8 6 9 -2
16 -18 16 -16 0 -23 -7 -17 -17 5 -10 -20 -17 -56 -17 -37 1 -80 0 -97 -1 -16
-1 -57 -1 -90 0 -33 1 -73 1 -90 0 -16 -1 -59 -1 -95 0 -163 5 -203 6 -325 9
-71 2 -155 -3 -185 -10 -30 -8 -55 -8 -55 -1 0 8 -92 12 -205 10 -220 -5 -303
5 -286 32 6 10 -3 29 -19 42 -39 32 -39 168 0 200 17 14 30 18 30 10 0 -8 14
-3 31 11 23 19 146 25 500 24 303 -1 474 6 482 19 8 13 20 8 31 -12 10 -18 27
-27 39 -20z"/>
<path d="M6298 12314 c-55 -42 -78 -108 -78 -224 0 -116 23 -182 78 -224 24
-19 296 -25 1118 -25 l1086 -1 49 49 c43 44 49 66 49 201 0 135 -6 157 -49
201 l-49 49 -1086 -1 c-822 0 -1094 -6 -1118 -25z m706 -66 c123 -1 209 6 203
17 -6 10 8 6 32 -9 36 -22 45 -21 61 4 11 17 20 21 20 10 0 -12 69 -21 169
-22 108 -1 165 6 157 18 -8 13 -2 14 16 3 35 -22 162 -31 149 -11 -5 9 4 15
20 15 16 0 29 -5 29 -12 0 -7 76 -13 169 -14 110 -1 165 6 157 19 -8 13 -2 14
16 2 27 -17 56 -21 198 -26 53 -2 63 -7 40 -22 -25 -16 -24 -19 6 -20 20 0 31
-9 24 -20 -7 -11 3 -20 21 -20 25 0 31 -13 24 -50 -5 -27 -1 -50 9 -50 10 0
-6 -22 -36 -50 -33 -31 -43 -50 -26 -50 24 -1 24 -3 1 -18 -15 -10 -85 -16
-155 -13 -71 2 -128 -4 -128 -14 0 -9 -19 -6 -42 6 -30 16 -39 16 -29 1 9 -16
-2 -16 -39 -2 -67 26 -76 25 -58 -3 10 -16 5 -18 -13 -6 -34 20 -539 25 -526
4 5 -8 -12 -7 -38 3 -28 11 -60 11 -81 -1 -19 -10 -34 -12 -34 -3 0 9 -130 16
-290 16 -159 0 -290 -7 -290 -16 0 -8 -19 -5 -42 7 -30 16 -39 16 -29 1 9 -16
-2 -16 -39 -2 -67 26 -76 25 -58 -3 9 -14 5 -18 -8 -9 -13 7 -59 17 -104 22
-92 10 -126 25 -110 50 6 9 1 23 -10 30 -25 15 -8 190 20 218 10 10 104 18
208 19 119 0 186 7 178 20 -8 12 -2 12 16 1 15 -10 124 -19 242 -20z"/>
<path d="M603 11006 c-37 -18 -91 -69 -120 -113 l-53 -80 0 -933 0 -933 57
-82 c103 -149 74 -145 1132 -145 1063 0 1047 -2 1144 154 l47 76 0 931 0 932
-53 80 c-99 150 -75 147 -1140 147 -839 -1 -955 -5 -1014 -34z m458 -54 c44 1
85 7 90 12 6 6 47 4 92 -5 46 -8 106 -8 135 0 29 9 73 8 97 -1 28 -11 45 -9
45 4 0 11 9 15 20 8 12 -7 85 -13 164 -12 83 0 157 -10 174 -24 20 -16 25 -17
16 -1 -9 15 13 25 66 30 44 5 80 2 80 -5 0 -8 30 -7 67 1 37 9 82 7 100 -3 22
-12 33 -10 33 4 0 12 8 17 18 11 10 -6 79 -12 155 -14 143 -4 247 -50 247
-108 0 -16 10 -29 21 -29 12 0 16 -9 9 -20 -7 -11 -4 -20 6 -20 10 0 18 -84
18 -187 0 -103 7 -199 16 -213 11 -17 8 -21 -7 -12 -13 8 -23 6 -23 -5 0 -11
10 -23 21 -27 15 -5 15 -23 0 -63 -11 -30 -13 -50 -3 -44 10 6 18 -21 18 -59
0 -39 -8 -70 -18 -70 -10 0 -18 -14 -18 -31 0 -17 9 -26 20 -19 11 7 20 -2 20
-19 0 -17 -11 -32 -25 -33 -20 -1 -20 -3 0 -11 35 -14 31 -67 -4 -67 -18 0
-25 -12 -18 -30 6 -16 19 -25 29 -19 10 6 18 -3 18 -20 0 -17 -11 -32 -25 -33
-20 -1 -20 -3 0 -11 30 -12 34 -67 5 -67 -11 0 -20 -14 -20 -31 0 -17 9 -26
20 -19 11 7 20 -2 20 -19 0 -17 -11 -31 -25 -31 -17 -1 -15 -7 5 -20 27 -17
27 -19 0 -20 -27 -1 -27 -3 0 -20 20 -13 22 -19 5 -20 -14 0 -25 -14 -25 -31
0 -17 9 -26 20 -19 11 7 20 -2 20 -19 0 -17 -16 -32 -35 -33 -33 -3 -33 -3 0
-12 37 -9 50 -66 15 -66 -11 0 -20 -14 -20 -31 0 -17 9 -26 20 -19 11 7 20 -2
20 -19 0 -17 -11 -32 -25 -33 -20 -1 -20 -3 0 -11 30 -12 34 -67 5 -67 -11 0
-20 -14 -20 -31 0 -17 9 -26 20 -19 11 7 20 -2 20 -19 0 -17 -11 -31 -25 -31
-17 -1 -16 -6 4 -19 25 -16 25 -24 -6 -57 -19 -22 -32 -51 -29 -66 3 -16 -5
-26 -18 -23 -14 2 -20 -8 -14 -24 13 -32 -48 -71 -111 -71 -22 0 -41 -8 -41
-17 0 -20 -292 -18 -312 2 -8 8 -26 5 -41 -8 -15 -12 -27 -17 -27 -10 0 7 -23
3 -51 -7 -28 -11 -46 -12 -41 -2 13 19 -238 19 -258 -1 -30 -30 -92 7 -66 40
20 26 17 26 -16 -2 -23 -19 -45 -31 -50 -26 -5 5 -42 1 -83 -8 -40 -9 -73 -11
-72 -4 5 40 -8 44 -49 17 -39 -25 -58 -26 -119 -4 -41 14 -76 17 -80 6 -6 -19
-29 -21 -195 -11 -60 3 -121 13 -135 22 -14 8 -25 6 -25 -4 0 -25 -117 -24
-132 0 -6 10 -20 12 -31 5 -28 -17 -117 32 -117 65 0 14 -19 36 -43 48 -34 19
-37 27 -15 41 20 12 21 17 3 18 -14 0 -25 18 -25 40 0 22 9 40 20 40 11 0 20
10 20 21 0 12 -8 16 -19 10 -10 -6 -24 -3 -30 7 -7 11 4 29 24 40 19 12 24 21
10 21 -29 1 -34 81 -5 81 11 0 20 10 20 21 0 12 -9 16 -20 9 -11 -7 -20 2 -20
20 0 18 9 27 20 20 11 -7 20 -3 20 9 0 11 -9 21 -20 21 -11 0 -20 18 -20 40 0
22 9 40 20 40 11 0 20 10 20 21 0 12 -9 16 -20 9 -11 -7 -20 3 -20 21 0 23 11
30 35 21 31 -11 31 -9 4 13 -47 37 -64 95 -28 95 16 0 29 10 29 21 0 12 -9 16
-20 9 -11 -7 -20 2 -20 19 0 17 11 32 25 33 19 1 19 4 -1 12 -21 8 -21 16 0
42 20 24 20 28 1 17 -14 -9 -25 -6 -25 6 0 11 9 21 20 21 11 0 20 10 20 21 0
12 -9 16 -20 9 -11 -7 -20 2 -20 19 0 17 11 32 25 33 20 1 20 3 0 11 -30 12
-34 87 -5 87 11 0 20 10 20 21 0 12 -9 16 -20 9 -11 -7 -20 2 -20 19 0 17 11
32 25 33 20 1 20 3 0 11 -30 12 -34 87 -5 87 11 0 20 10 20 21 0 12 -9 16 -20
9 -11 -7 -20 1 -20 17 0 16 11 34 25 40 19 7 18 15 -5 31 -25 17 -26 28 -5 61
18 29 19 41 3 41 -15 0 -14 11 5 33 21 26 21 35 2 42 -28 9 -34 65 -7 65 28 0
15 107 -16 140 -25 26 -25 31 4 36 36 7 48 44 14 44 -12 0 -7 22 11 48 24 38
26 50 5 58 -18 7 -15 11 7 12 18 1 38 16 45 33 6 17 21 26 32 19 11 -7 20 0
20 15 0 22 35 28 150 27 87 -1 151 6 152 18 1 13 4 13 10 0 4 -11 44 -19 89
-18z"/>
<path d="M3498 10995 c-157 -104 -158 -112 -158 -1115 0 -1003 1 -1011 158
-1115 l68 -45 964 0 964 0 68 45 c37 25 88 76 113 113 l45 68 0 934 0 934 -45
68 c-25 37 -76 88 -113 113 l-68 45 -964 0 -964 0 -68 -45z m1041 -42 c22 -18
25 -17 14 1 -16 27 601 32 675 6 22 -7 74 -7 117 1 57 10 81 7 88 -12 6 -15
22 -22 36 -17 14 6 40 -4 57 -21 17 -17 40 -31 50 -31 10 0 18 -20 16 -45 -1
-25 7 -43 18 -42 26 5 28 -671 2 -711 -12 -18 -11 -24 2 -16 13 9 20 -166 20
-517 0 -292 -8 -535 -18 -541 -9 -6 -11 -19 -5 -29 6 -11 1 -19 -11 -19 -12 0
-19 -7 -15 -15 4 -8 -19 -42 -51 -75 -33 -33 -53 -49 -46 -35 10 16 4 21 -17
13 -17 -7 -26 -20 -21 -29 6 -9 0 -23 -13 -31 -14 -9 -18 -6 -9 8 10 16 -13
21 -77 15 -50 -4 -96 1 -102 11 -7 10 -22 12 -35 4 -31 -20 -393 -21 -381 -1
5 8 -5 15 -23 15 -18 0 -27 -9 -20 -20 7 -11 3 -20 -8 -20 -11 0 -25 9 -32 19
-6 11 -30 13 -56 4 -55 -20 -217 -16 -253 6 -17 11 -22 10 -14 -3 14 -25 -127
-21 -167 4 -17 11 -21 8 -12 -7 8 -13 5 -23 -7 -23 -11 0 -21 11 -21 25 0 15
-6 17 -15 5 -13 -18 -123 -25 -175 -11 -11 3 -29 4 -40 1 -70 -14 -172 -13
-181 2 -7 10 -22 12 -35 3 -40 -25 -121 -20 -184 12 -33 17 -67 29 -75 27 -8
-2 -15 14 -15 37 0 22 -13 45 -29 51 -16 6 -24 24 -18 40 6 15 3 28 -8 28 -26
0 -23 60 3 61 12 0 6 10 -14 21 -33 19 -32 23 10 59 35 29 39 38 14 38 -35 1
-44 61 -10 61 12 0 9 9 -7 19 -24 15 -24 23 -1 51 16 19 20 39 9 47 -29 20
-32 63 -4 63 17 1 16 6 -4 19 -24 15 -24 23 -1 51 16 19 20 39 9 47 -27 19
-33 63 -9 63 11 0 20 10 20 21 0 12 -9 16 -20 9 -28 -18 -25 17 5 47 16 16 17
30 5 39 -30 21 -33 64 -5 64 17 1 16 6 -4 19 -24 15 -24 23 -1 51 16 19 20 39
9 47 -29 20 -32 63 -4 63 17 1 16 6 -4 19 -24 15 -24 23 -1 51 16 19 20 39 9
47 -29 20 -32 63 -4 63 17 1 15 7 -5 19 -24 15 -25 24 -5 44 30 30 34 85 5 67
-11 -7 -20 7 -20 30 0 27 9 38 25 30 14 -7 11 -1 -7 14 -32 27 -29 85 4 65 10
-6 18 3 18 21 0 18 -9 27 -20 20 -11 -7 -20 7 -20 30 0 28 8 38 25 28 20 -11
20 -8 0 13 -30 32 -34 87 -5 69 11 -7 20 2 20 20 0 18 -9 27 -20 20 -11 -7
-20 7 -20 30 0 27 8 37 23 28 15 -9 18 -5 8 10 -42 68 85 215 200 233 43 7 82
16 86 19 20 20 776 3 802 -17z"/>
<path d="M6420 10995 c-159 -108 -150 -42 -150 -1115 0 -1073 -9 -1007 150
-1115 l66 -45 964 0 964 0 68 45 c157 104 158 112 158 1115 0 1003 -1 1011
-158 1115 l-68 45 -964 0 -964 0 -66 -45z m210 -35 c-7 -11 2 -20 19 -20 17 0
31 8 31 17 0 22 677 24 690 2 6 -8 29 -10 52 -4 25 6 49 -1 60 -17 13 -22 17
-22 18 -2 0 15 9 21 20 14 11 -7 51 -3 90 7 38 11 74 13 79 5 12 -20 337 -13
371 8 15 9 21 8 14 -3 -16 -26 212 -24 231 2 9 14 14 12 15 -4 0 -14 13 -25
28 -25 16 0 32 -8 35 -17 4 -9 34 -30 67 -46 33 -16 58 -40 55 -53 -3 -13 10
-24 27 -24 25 0 27 -7 12 -26 -23 -27 -22 -69 3 -109 8 -14 8 -25 -1 -25 -9 0
-16 -62 -16 -138 0 -76 6 -135 13 -130 23 14 -8 -81 -31 -97 -16 -10 -15 -14
1 -15 32 0 33 -919 0 -959 -18 -22 -17 -25 1 -14 18 11 24 -27 24 -151 0 -163
-27 -247 -60 -193 -9 14 -22 19 -31 11 -8 -8 -4 -25 9 -38 32 -32 30 -49 -7
-64 -21 -8 -26 -3 -17 13 8 14 -6 5 -30 -20 -48 -50 -198 -67 -169 -20 11 19
8 20 -14 2 -39 -30 -879 -34 -879 -3 0 14 -8 15 -25 0 -38 -31 -720 -29 -702
2 10 16 3 15 -17 -2 -21 -17 -37 -19 -45 -6 -7 11 -24 16 -37 11 -25 -10 -75
29 -134 104 -38 49 -46 146 -14 185 16 20 17 25 1 16 -30 -18 -29 125 1 165
16 21 16 25 0 15 -15 -9 -23 13 -23 66 0 43 7 75 14 70 8 -4 14 4 14 20 0 16
-7 24 -15 19 -8 -5 -21 -1 -27 9 -6 11 -2 25 9 32 12 7 16 31 9 53 -7 21 0 54
14 72 23 27 23 30 -1 16 -22 -13 -25 -6 -15 34 8 32 4 55 -10 59 -15 5 -11 19
10 40 35 35 45 66 15 47 -26 -16 -20 133 6 168 16 21 16 25 -1 15 -30 -18 -29
125 1 165 17 22 16 25 -3 14 -16 -10 -25 -4 -25 16 0 17 11 32 25 33 20 1 20
3 0 11 -30 12 -34 87 -5 87 11 0 20 10 20 21 0 12 -9 16 -20 9 -11 -7 -20 2
-20 19 0 17 11 31 25 32 14 0 10 9 -9 20 -40 24 -26 82 16 66 20 -8 25 -2 16
21 -7 17 -20 27 -29 22 -9 -6 -22 -2 -28 8 -7 11 4 29 24 40 19 12 24 21 10
21 -14 1 -25 19 -25 41 0 22 11 41 25 42 20 1 20 3 0 11 -34 14 -31 33 11 78
20 22 38 48 40 59 3 11 17 20 32 20 16 0 47 17 69 37 22 20 49 31 60 25 11 -7
26 -4 33 8 7 11 17 20 22 20 6 0 5 -9 -2 -20z"/>
<path d="M911 8409 c-37 -38 -41 -131 -7 -165 45 -45 1401 -33 1443 13 41 45
42 82 2 139 l-31 44 -688 0 c-598 0 -691 -4 -719 -31z"/>
<path d="M3835 8418 c-41 -23 -48 -137 -11 -174 34 -34 1398 -34 1432 0 34 34
30 127 -7 165 -38 37 -1350 47 -1414 9z"/>
<path d="M6727 8388 c-31 -47 -32 -58 -5 -105 l30 -53 692 -5 c752 -6 756 -5
756 103 0 110 -14 112 -756 112 l-683 0 -34 -52z"/>
<path d="M1035 8098 c-53 -31 -45 -115 14 -141 93 -43 162 94 72 142 -46 25
-42 25 -86 -1z"/>
<path d="M1252 8094 c-75 -55 5 -191 83 -142 67 42 41 168 -35 168 -7 0 -28
-12 -48 -26z"/>
<path d="M1471 8089 c-52 -52 -15 -149 56 -149 73 0 100 124 34 159 -50 27
-52 27 -90 -10z"/>
<path d="M1691 8081 c-75 -83 35 -184 114 -104 39 38 40 43 8 92 -40 61 -75
65 -122 12z"/>
<path d="M1915 8098 c-53 -31 -45 -115 14 -141 93 -43 162 94 72 142 -46 25
-42 25 -86 -1z"/>
<path d="M2135 8098 c-86 -50 -15 -183 76 -141 61 27 67 112 10 142 -46 25
-42 25 -86 -1z"/>
<path d="M3931 8089 c-40 -41 -39 -78 1 -119 70 -69 173 25 117 106 -37 52
-74 56 -118 13z"/>
<path d="M4155 8098 c-53 -31 -45 -115 14 -141 93 -43 162 94 72 142 -46 25
-42 25 -86 -1z"/>
<path d="M4371 8089 c-52 -52 -15 -149 56 -149 38 0 73 43 73 90 0 82 -72 115
-129 59z"/>
<path d="M4587 8069 c-32 -49 -31 -54 8 -92 79 -80 189 21 114 104 -47 53 -82
49 -122 -12z"/>
<path d="M4811 8089 c-52 -52 -15 -149 56 -149 73 0 100 124 34 159 -50 27
-52 27 -90 -10z"/>
<path d="M5032 8094 c-75 -55 5 -191 83 -142 67 42 41 168 -35 168 -7 0 -28
-12 -48 -26z"/>
<path d="M6855 8098 c-53 -31 -45 -115 14 -141 93 -43 162 94 72 142 -46 25
-42 25 -86 -1z"/>
<path d="M7075 8098 c-62 -36 -33 -158 38 -158 13 0 38 14 56 31 72 73 -6 179
-94 127z"/>
<path d="M7292 8094 c-75 -55 5 -191 83 -142 67 42 41 168 -35 168 -7 0 -28
-12 -48 -26z"/>
<path d="M7511 8089 c-52 -52 -15 -149 56 -149 73 0 100 124 34 159 -50 27
-52 27 -90 -10z"/>
<path d="M7735 8098 c-86 -50 -15 -183 76 -141 61 27 67 112 10 142 -46 25
-42 25 -86 -1z"/>
<path d="M7939 8079 c-46 -46 -20 -122 46 -135 73 -14 119 89 64 145 -42 41
-61 39 -110 -10z"/>
<path d="M486 7692 c-85 -73 -85 -331 0 -404 l56 -48 1078 0 1078 0 56 48 c52
45 56 59 56 202 0 143 -4 157 -56 202 l-56 48 -1078 0 -1078 0 -56 -48z m549
-37 c-3 -14 9 -21 25 -17 17 4 161 7 320 7 193 0 295 7 305 22 10 16 14 16 15
2 0 -28 335 -34 351 -7 8 13 21 13 36 1 13 -11 133 -18 268 -18 134 1 250 -3
257 -10 6 -7 25 -7 40 -1 20 7 28 -7 28 -50 0 -33 11 -65 25 -71 19 -7 18 -15
-5 -31 -16 -12 -20 -22 -8 -22 12 0 21 -13 21 -30 0 -16 -4 -26 -10 -20 -5 5
-19 -10 -32 -35 -12 -25 -39 -48 -59 -52 -26 -5 -32 1 -21 20 13 21 10 22 -12
4 -38 -30 -558 -29 -598 1 -21 16 -25 16 -15 -2 11 -17 -50 -23 -241 -24 -140
0 -277 -4 -305 -8 -27 -3 -58 -3 -67 2 -23 12 -413 10 -425 -2 -6 -5 -41 -2
-79 6 -38 9 -69 10 -69 3 0 -7 -40 -10 -88 -6 -103 8 -229 110 -165 135 18 7
33 21 33 31 0 11 -9 14 -20 7 -11 -7 -20 2 -20 19 0 17 11 32 25 33 20 1 20 3
0 11 -32 13 -32 60 0 62 44 4 94 17 103 27 5 5 87 7 181 5 94 -2 176 5 182 15
16 26 30 22 24 -7z"/>
<path d="M3418 7714 c-112 -86 -103 -417 13 -462 18 -6 518 -12 1112 -12
l1079 0 49 49 c43 44 49 66 49 201 0 135 -6 157 -49 201 l-49 49 -1086 -1
c-822 0 -1094 -6 -1118 -25z m1612 -69 c253 -3 477 -6 497 -6 49 -1 89 -42 77
-77 -5 -15 -1 -22 10 -16 11 7 18 -17 17 -56 -3 -80 -88 -187 -114 -145 -9 14
-17 16 -17 4 0 -30 -865 -31 -885 -1 -10 16 -14 16 -15 0 0 -15 -69 -21 -208
-20 -115 2 -205 -3 -200 -11 4 -7 -21 -7 -57 1 -36 7 -182 12 -324 10 -197 -2
-266 4 -287 25 -15 15 -38 21 -51 14 -12 -7 -17 -6 -9 2 8 9 0 30 -18 47 -21
21 -24 35 -9 40 13 4 23 16 23 27 0 11 -9 14 -20 7 -11 -7 -20 -3 -20 8 0 11
9 25 20 32 11 7 20 29 20 49 0 20 14 42 30 48 17 7 30 1 30 -13 1 -16 7 -14
19 5 15 23 104 28 509 28 316 0 486 7 478 20 -8 12 -2 13 16 1 15 -10 235 -20
488 -23z"/>
<path d="M6309 7691 c-73 -73 -73 -329 0 -402 l49 -49 1079 0 c594 0 1094 6
1112 12 121 47 121 429 0 476 -18 6 -518 12 -1112 12 l-1079 0 -49 -49z m1601
-38 c109 4 167 -1 160 -13 -8 -13 6 -13 40 0 76 29 156 26 138 -5 -11 -20 -8
-20 13 0 20 19 32 19 56 0 25 -21 28 -20 14 3 -13 22 -9 26 17 15 20 -7 62
-13 94 -13 44 0 58 -9 58 -38 0 -21 11 -42 25 -47 19 -6 18 -17 -5 -46 -17
-21 -19 -30 -5 -22 18 11 25 -3 25 -51 -1 -50 -5 -59 -20 -36 -18 28 -29 3
-15 -33 12 -30 -99 -40 -455 -38 -232 0 -386 -7 -395 -19 -9 -13 -14 -13 -15
1 0 17 -416 25 -490 9 -11 -3 -24 -3 -30 0 -5 2 -164 5 -352 7 -402 4 -407 6
-405 164 1 128 24 152 140 149 48 -1 140 3 204 10 94 10 114 8 102 -14 -12
-21 -9 -21 12 -1 20 19 32 19 56 0 21 -17 26 -17 17 -2 -10 17 78 22 344 20
197 -2 355 2 351 9 -4 7 27 6 70 -2 43 -8 156 -11 251 -7z"/>
</g>
</svg>
